<svg xmlns="http://www.w3.org/2000/svg" width="12.002" height="10.501" viewBox="0 0 12.002 10.501"><defs><style>.a{fill:#fff;}</style></defs><path class="a" d="M12,34.625v6.751A1.125,1.125,0,0,1,10.876,42.5H1.125A1.125,1.125,0,0,1,0,41.376V34.625A1.125,1.125,0,0,1,1.125,33.5H3.188l.288-.771A1.124,1.124,0,0,1,4.529,32H7.471a1.124,1.124,0,0,1,1.052.729l.291.771h2.063A1.125,1.125,0,0,1,12,34.625ZM8.814,38A2.813,2.813,0,1,0,6,40.814,2.815,2.815,0,0,0,8.814,38Zm-.75,0A2.063,2.063,0,1,1,6,35.938,2.066,2.066,0,0,1,8.064,38Z" transform="translate(0 -32)"/></svg>