<svg xmlns="http://www.w3.org/2000/svg" width="15" height="15" viewBox="0 0 15 15">
  <g id="Group_593" data-name="Group 593" transform="translate(-1253 -93)">
    <path id="Path_1172" data-name="Path 1172" d="M7.5,0A7.5,7.5,0,1,1,0,7.5,7.5,7.5,0,0,1,7.5,0Z" transform="translate(1253 93)" fill="#fff"/>
    <path id="plus-solid" d="M6.5,2.75H4.25V.5a.5.5,0,0,0-.5-.5h-.5a.5.5,0,0,0-.5.5V2.75H.5a.5.5,0,0,0-.5.5v.5a.5.5,0,0,0,.5.5H2.75V6.5a.5.5,0,0,0,.5.5h.5a.5.5,0,0,0,.5-.5V4.25H6.5a.5.5,0,0,0,.5-.5v-.5A.5.5,0,0,0,6.5,2.75Z" transform="translate(1265.45 100.5) rotate(135)" fill="#dbdbdb"/>
  </g>
</svg>
