<svg xmlns="http://www.w3.org/2000/svg" width="24.726" height="25.357" viewBox="0 0 24.726 25.357"><defs><style>.a{fill:#6b6b6b;}</style></defs><path class="a" d="M38.388,21.056l-1.794-1.036a8.113,8.113,0,0,0,0-2.957l1.794-1.036a.509.509,0,0,0,.232-.59,10.491,10.491,0,0,0-2.3-3.985.507.507,0,0,0-.623-.1L33.9,12.391a7.949,7.949,0,0,0-2.561-1.478V8.845a.5.5,0,0,0-.4-.493,10.589,10.589,0,0,0-4.6,0,.5.5,0,0,0-.4.493v2.072A8.2,8.2,0,0,0,23.385,12.4l-1.79-1.036a.5.5,0,0,0-.623.1,10.428,10.428,0,0,0-2.3,3.985.5.5,0,0,0,.232.59l1.794,1.036a8.113,8.113,0,0,0,0,2.957L18.9,21.06a.509.509,0,0,0-.232.59,10.491,10.491,0,0,0,2.3,3.985.507.507,0,0,0,.623.1l1.794-1.036a7.949,7.949,0,0,0,2.561,1.478v2.072a.5.5,0,0,0,.4.493,10.589,10.589,0,0,0,4.6,0,.5.5,0,0,0,.4-.493V26.173A8.2,8.2,0,0,0,33.9,24.695L35.7,25.731a.5.5,0,0,0,.623-.1,10.428,10.428,0,0,0,2.3-3.985A.52.52,0,0,0,38.388,21.056Zm-9.747.855a3.37,3.37,0,1,1,3.37-3.37A3.374,3.374,0,0,1,28.642,21.911Z" transform="matrix(0.966, 0.259, -0.259, 0.966, -10.505, -12.648)"/></svg>