<svg xmlns="http://www.w3.org/2000/svg" width="45.72" height="40" viewBox="0 0 45.72 40">
  <path id="comment-dots-regular" d="M12.8,47.714a2.857,2.857,0,1,0,2.857,2.857A2.854,2.854,0,0,0,12.8,47.714Zm10,0a2.857,2.857,0,1,0,2.857,2.857A2.854,2.854,0,0,0,22.8,47.714Zm10,0a2.857,2.857,0,1,0,2.857,2.857A2.854,2.854,0,0,0,32.8,47.714ZM22.8,32C10.172,32-.06,40.313-.06,50.571A16.413,16.413,0,0,0,4.663,61.848,22.657,22.657,0,0,1,.52,68.384,2.143,2.143,0,0,0,2.082,72,21.664,21.664,0,0,0,14.5,67.866,27.576,27.576,0,0,0,22.8,69.143c12.625,0,22.857-8.312,22.857-18.571S35.422,32,22.8,32Zm0,32.857a23.2,23.2,0,0,1-7-1.08l-2.027-.643-1.741,1.232a19.2,19.2,0,0,1-5.134,2.589,22.4,22.4,0,0,0,1.777-3.589l.946-2.509L7.779,58.911a12.281,12.281,0,0,1-3.554-8.339c0-7.875,8.33-14.286,18.571-14.286S41.368,42.7,41.368,50.571,33.038,64.857,22.8,64.857Z" transform="translate(0.066 -32)" fill="#fff"/>
</svg>
