<svg xmlns="http://www.w3.org/2000/svg" width="15" height="15" viewBox="0 0 15 15"><defs><style>.a{fill:#6b6b6b;}</style></defs><path class="a" d="M6.328,0H8.672a.7.7,0,0,1,.7.7V5.625h2.569a.585.585,0,0,1,.413,1L7.9,11.083a.568.568,0,0,1-.8,0L2.64,6.624a.585.585,0,0,1,.413-1H5.625V.7A.7.7,0,0,1,6.328,0ZM15,11.016V14.3a.7.7,0,0,1-.7.7H.7a.7.7,0,0,1-.7-.7V11.016a.7.7,0,0,1,.7-.7H5l1.436,1.436a1.5,1.5,0,0,0,2.127,0L10,10.313h4.3A.7.7,0,0,1,15,11.016Zm-3.633,2.578a.586.586,0,1,0-.586.586A.588.588,0,0,0,11.367,13.594Zm1.875,0a.586.586,0,1,0-.586.586A.588.588,0,0,0,13.242,13.594Z"/></svg>