<svg xmlns="http://www.w3.org/2000/svg" width="22" height="30" viewBox="0 0 22 30"><defs><style>.a{fill:#ed1c24;}</style></defs><path class="a" d="M10.421,15.006a5.778,5.778,0,0,1-.115-2.748C10.788,12.258,10.742,14.42,10.421,15.006Zm-.1,2.766A27.341,27.341,0,0,1,8.7,21.445a20.784,20.784,0,0,1,3.6-1.283,7.548,7.548,0,0,1-1.977-2.391ZM4.933,25.084c0,.047.756-.316,2-2.355A8.045,8.045,0,0,0,4.933,25.084ZM14.208,9.375H22V28.594A1.388,1.388,0,0,1,20.625,30H1.375A1.388,1.388,0,0,1,0,28.594V1.406A1.388,1.388,0,0,1,1.375,0H12.833V7.969A1.4,1.4,0,0,0,14.208,9.375ZM13.75,19.441A5.858,5.858,0,0,1,11.3,16.289a8.6,8.6,0,0,0,.355-3.762,1.427,1.427,0,0,0-2.739-.4,9.952,9.952,0,0,0,.464,4.512c-.665,1.617-1.644,3.785-2.337,5.027-.006,0-.006.006-.011.006-1.553.814-4.217,2.607-3.122,3.984a1.763,1.763,0,0,0,1.232.586c1.026,0,2.045-1.055,3.5-3.621a32.108,32.108,0,0,1,4.526-1.359,8.541,8.541,0,0,0,3.667,1.143,1.521,1.521,0,0,0,1.129-2.543C17.17,19.066,14.856,19.295,13.75,19.441ZM21.6,6.152,15.984.41A1.359,1.359,0,0,0,15.01,0h-.344V7.5H22V7.143A1.418,1.418,0,0,0,21.6,6.152ZM17.354,21.111c.235-.158-.143-.7-2.452-.527C17.027,21.51,17.354,21.111,17.354,21.111Z"/></svg>