<svg xmlns="http://www.w3.org/2000/svg" width="17.448" height="15" viewBox="0 0 17.448 15"><defs><style>.a{fill:silver;}</style></defs><g transform="translate(-40)"><path class="a" d="M14.3,0H.7a.7.7,0,0,0-.5,1.2L5.625,6.619v6.037a.7.7,0,0,0,.3.576l2.344,1.64A.7.7,0,0,0,9.375,14.3V6.619L14.793,1.2A.7.7,0,0,0,14.3,0Z" transform="translate(40)"/><path class="a" d="M11.729,192H17.31a.433.433,0,0,1,.306.74l-2.789,2.792a.435.435,0,0,1-.614,0l-2.789-2.792A.433.433,0,0,1,11.729,192Z" transform="translate(39.704 -180.658)"/></g></svg>