<svg xmlns="http://www.w3.org/2000/svg" width="180" height="40" viewBox="0 0 180 40">
  <g id="Group_150" data-name="Group 150" transform="translate(-628 -450)">
    <rect id="Rectangle_86" data-name="Rectangle 86" width="180" height="40" rx="5" transform="translate(628 450)" fill="#eb4335"/>
    <text id="Google" transform="translate(718 476)" fill="#fff" font-size="14" font-family="Roboto-Regular, Roboto"><tspan x="-22.172" y="0">Google</tspan></text>
    <g id="Group_145" data-name="Group 145">
      <path id="Path_403" data-name="Path 403" d="M3,0H21a3,3,0,0,1,3,3V21a3,3,0,0,1-3,3H3a3,3,0,0,1-3-3V3A3,3,0,0,1,3,0Z" transform="translate(636 458)" fill="#fff"/>
      <g id="google-icon" transform="translate(641 463)">
        <path id="Path_404" data-name="Path 404" d="M137.222,108.182a5.956,5.956,0,0,0-.147-1.421H130.55v2.579h3.83a3.4,3.4,0,0,1-1.421,2.255l-.013.086,2.063,1.6.143.014a6.8,6.8,0,0,0,2.07-5.112" transform="translate(-123.6 -101.077)" fill="#4285f4"/>
        <path id="Path_405" data-name="Path 405" d="M20.134,161.945a6.624,6.624,0,0,0,4.6-1.683l-2.193-1.7a4.113,4.113,0,0,1-2.409.7,4.184,4.184,0,0,1-3.954-2.888l-.082.007-2.145,1.66-.028.078a6.945,6.945,0,0,0,6.209,3.83" transform="translate(-13.184 -148.045)" fill="#34a853"/>
        <path id="Path_406" data-name="Path 406" d="M3,75.84a4.279,4.279,0,0,1-.232-1.375,4.5,4.5,0,0,1,.224-1.375l0-.092L.812,71.312l-.071.034a6.935,6.935,0,0,0,0,6.24L3,75.84" transform="translate(0 -67.516)" fill="#fbbc05"/>
        <path id="Path_407" data-name="Path 407" d="M20.134,2.687a3.852,3.852,0,0,1,2.687,1.035l1.961-1.915A6.677,6.677,0,0,0,20.134,0a6.945,6.945,0,0,0-6.209,3.83l2.247,1.745a4.2,4.2,0,0,1,3.962-2.888" transform="translate(-13.184)" fill="#eb4335"/>
      </g>
    </g>
  </g>
</svg>
