<svg id="file-image-regular" xmlns="http://www.w3.org/2000/svg" width="22" height="30" viewBox="0 0 22 30">
  <path id="file-image-regular-2" data-name="file-image-regular" d="M21.192,5.641,16.385.726A2.72,2.72,0,0,0,14.443-.1H2.75A2.791,2.791,0,0,0,0,2.718v24.37A2.782,2.782,0,0,0,2.75,29.9h16.5A2.782,2.782,0,0,0,22,27.088V7.633a2.858,2.858,0,0,0-.808-1.992ZM19.027,7.4h-4.36V2.946ZM2.75,27.088V2.718h9.167V8.81a1.387,1.387,0,0,0,1.375,1.406H19.25V27.088Zm1.833-2.812H17.417v-7.5L16.07,15.4a.677.677,0,0,0-.974,0l-5.013,5.126L7.82,18.213a.677.677,0,0,0-.974,0L4.583,20.527Zm2.75-14.06a2.813,2.813,0,1,0,2.75,2.812A2.782,2.782,0,0,0,7.333,10.216Z" transform="translate(0 0.1)" fill="#6b6b6b"/>
</svg>
