<svg xmlns="http://www.w3.org/2000/svg" width="135" height="40" viewBox="0 0 135 40">
  <g id="Group_125" data-name="Group 125" transform="translate(0 0.083)">
    <rect id="button" width="135" height="40" rx="5" transform="translate(0 -0.083)"/>
    <text id="Download_on_the" data-name="Download on the" transform="translate(43.548 14.885)" fill="#fff" font-size="8" font-family="Roboto-Medium, Roboto" font-weight="500"><tspan x="0" y="0">Download on the</tspan></text>
    <text id="App_Store" data-name="App Store" transform="translate(43.548 30.465)" fill="#fff" font-size="13" font-family="SegoeUI, Segoe UI"><tspan x="0" y="0">App Store</tspan></text>
    <path id="logo" d="M6.914,26.533c-1.64,0-2.881-1.589-4.113-3.359a16.675,16.675,0,0,1-2.582-6.4,10.46,10.46,0,0,1,.9-6.973A6.77,6.77,0,0,1,3.458,7.4a6.3,6.3,0,0,1,3.164-.919h.067a7.446,7.446,0,0,1,2.679.683,5.077,5.077,0,0,0,1.65.472,5.174,5.174,0,0,0,1.595-.465,8.638,8.638,0,0,1,3.08-.77,4.241,4.241,0,0,1,.424.021,6.184,6.184,0,0,1,4.868,2.627l-.021.013a5.944,5.944,0,0,0-2.852,5.04,5.851,5.851,0,0,0,3.566,5.362l.007,0-.008.027a14.562,14.562,0,0,1-1.835,3.748C18.8,24.75,17.625,26.463,15.765,26.5h-.081A4.6,4.6,0,0,1,13.7,26a5.333,5.333,0,0,0-2.334-.557,5.668,5.668,0,0,0-2.449.575,5.069,5.069,0,0,1-1.915.512ZM11.077,6.126c-.09,0-.181,0-.27-.01A5.52,5.52,0,0,1,12.221,2.01,5.96,5.96,0,0,1,16.143,0a5.849,5.849,0,0,1-1.386,4.238A5.01,5.01,0,0,1,11.077,6.126Z" transform="translate(10.651 6.414)" fill="#fff"/>
  </g>
</svg>
