<svg xmlns="http://www.w3.org/2000/svg" width="25" height="25" viewBox="0 0 25 25"><defs><style>.a{fill:#069;}.b{fill:#fff;}</style></defs><g transform="translate(-180 -891)"><rect class="a" width="25" height="25" rx="3" transform="translate(180 891)"/><path class="b" d="M41.192,60.109V48.854H37.451V60.109h3.741Zm-1.87-12.792a2.093,2.093,0,1,0-.025,0h.024Zm3.94,12.792H47V53.824a2.562,2.562,0,0,1,.123-.913,2.047,2.047,0,0,1,1.92-1.368c1.353,0,1.9,1.032,1.9,2.545v6.021h3.741V53.655c0-3.457-1.845-5.066-4.307-5.066a3.727,3.727,0,0,0-3.4,1.9H47V48.854H43.262c.049,1.056,0,11.255,0,11.255Z" transform="translate(146.406 851.947)"/></g></svg>