<svg xmlns="http://www.w3.org/2000/svg" width="40" height="40" viewBox="0 0 40 40">
  <path id="Path_643" data-name="Path 643" d="M-133.652,50.583h0a20,20,0,0,0-20-20h0a20,20,0,0,0-20,20h0a20,20,0,0,0,20,20h0A20,20,0,0,0-133.652,50.583Zm-21.359,8.929-5.514-5.478a1.917,1.917,0,0,1-.57-1.352,1.8,1.8,0,0,1,.57-1.352,1.954,1.954,0,0,1,2.739,0l2.056,2.056a.067.067,0,0,0,.114-.047v-10.2a2.017,2.017,0,0,1,1.659-2.043,1.917,1.917,0,0,1,2.184,1.905V53.3a.067.067,0,0,0,.114.047l1.972-1.972a2.029,2.029,0,0,1,2.261-.476,1.947,1.947,0,0,1,.562,3.132l-5.443,5.478A1.91,1.91,0,0,1-155.011,59.512Z" transform="translate(-133.652 70.583) rotate(180)" fill="#9d9d9d"/>
</svg>
