<svg xmlns="http://www.w3.org/2000/svg" width="18" height="18" viewBox="0 0 18 18">
  <g id="Group_136" data-name="Group 136" transform="translate(-447 -455)">
    <circle id="Ellipse_13" data-name="Ellipse 13" cx="9" cy="9" r="9" transform="translate(447 455)" fill="#ebebeb"/>
    <g id="plus-solid" transform="translate(451 459)">
      <path id="plus-solid-2" data-name="plus-solid" d="M9.286,35.929H6.071V32.714A.714.714,0,0,0,5.357,32H4.643a.714.714,0,0,0-.714.714v3.214H.714A.714.714,0,0,0,0,36.643v.714a.714.714,0,0,0,.714.714H3.929v3.214A.714.714,0,0,0,4.643,42h.714a.714.714,0,0,0,.714-.714V38.071H9.286A.714.714,0,0,0,10,37.357v-.714A.714.714,0,0,0,9.286,35.929Z" transform="translate(0 -32)" fill="#6b6b6b"/>
    </g>
  </g>
</svg>
