<svg xmlns="http://www.w3.org/2000/svg" width="15" height="15" viewBox="0 0 15 15"><defs><style>.a{fill:#dbdbdb;}</style></defs><path class="a" d="M13.929,37.893H9.107V33.071A1.072,1.072,0,0,0,8.036,32H6.964a1.072,1.072,0,0,0-1.071,1.071v4.821H1.071A1.072,1.072,0,0,0,0,38.964v1.071a1.072,1.072,0,0,0,1.071,1.071H5.893v4.821A1.072,1.072,0,0,0,6.964,47H8.036a1.072,1.072,0,0,0,1.071-1.071V41.107h4.821A1.072,1.072,0,0,0,15,40.036V38.964A1.072,1.072,0,0,0,13.929,37.893Z" transform="translate(0 -32)"/></svg>