<svg xmlns="http://www.w3.org/2000/svg" width="15" height="15" viewBox="0 0 15 15"><defs><style>.a{fill:#6b6b6b;}</style></defs><path class="a" d="M15.5,8A7.5,7.5,0,1,0,23,15.5,7.5,7.5,0,0,0,15.5,8Zm0,13.548A6.048,6.048,0,1,1,21.548,15.5,6.045,6.045,0,0,1,15.5,21.548Zm3.243-7.718c0,2.028-2.19,2.059-2.19,2.808v.192a.363.363,0,0,1-.363.363H14.81a.363.363,0,0,1-.363-.363v-.262c0-1.081.82-1.513,1.439-1.86.531-.3.857-.5.857-.895,0-.522-.665-.868-1.2-.868-.7,0-1.025.332-1.48.906a.363.363,0,0,1-.5.064l-.841-.638a.364.364,0,0,1-.08-.495,3.4,3.4,0,0,1,3.042-1.639A3,3,0,0,1,18.743,13.831ZM16.77,18.887a1.27,1.27,0,1,1-1.27-1.27A1.272,1.272,0,0,1,16.77,18.887Z" transform="translate(-8 -8)"/></svg>