<svg xmlns="http://www.w3.org/2000/svg" width="10" height="10" viewBox="0 0 10 10"><defs><style>.a{fill:#dbdbdb;}</style></defs><path class="a" d="M13,8a5,5,0,1,0,5,5A5,5,0,0,0,13,8Zm0,9.032A4.032,4.032,0,1,1,17.032,13,4.03,4.03,0,0,1,13,17.032Zm2.162-5.145c0,1.352-1.46,1.373-1.46,1.872v.128a.242.242,0,0,1-.242.242h-.92a.242.242,0,0,1-.242-.242v-.175c0-.721.546-1.009.959-1.24.354-.2.571-.333.571-.6,0-.348-.444-.578-.8-.578-.468,0-.683.221-.987.6a.242.242,0,0,1-.336.043l-.561-.425a.242.242,0,0,1-.053-.33A2.266,2.266,0,0,1,13.117,10.1,2,2,0,0,1,15.162,11.887Zm-1.315,3.371A.847.847,0,1,1,13,14.411.848.848,0,0,1,13.847,15.258Z" transform="translate(-8 -8)"/></svg>