<svg xmlns="http://www.w3.org/2000/svg" width="15" height="14.357" viewBox="0 0 15 14.357"><defs><style>.a{fill:#00aeef;}</style></defs><path class="a" d="M34.731,4.8l-4.1-.6L28.8.487a.9.9,0,0,0-1.609,0L25.364,4.2l-4.1.6a.9.9,0,0,0-.5,1.531l2.964,2.888-.7,4.079a.9.9,0,0,0,1.3.945L28,12.313l3.664,1.926a.9.9,0,0,0,1.3-.945l-.7-4.079,2.964-2.888a.9.9,0,0,0-.5-1.531ZM30.82,8.744l.664,3.88L28,10.793l-3.485,1.831.664-3.88L22.358,6l3.9-.566L28,1.9,29.743,5.43l3.9.566L30.82,8.744Z" transform="translate(-20.5 0.013)"/></svg>