<svg id="tag_cross" data-name="tag cross" xmlns="http://www.w3.org/2000/svg" width="15" height="15" viewBox="0 0 15 15">
  <rect id="Rectangle_34" data-name="Rectangle 34" width="15" height="15" rx="7.5" fill="#ebebeb"/>
  <path id="plus-solid" d="M6.5,2.75H4.25V.5a.5.5,0,0,0-.5-.5h-.5a.5.5,0,0,0-.5.5V2.75H.5a.5.5,0,0,0-.5.5v.5a.5.5,0,0,0,.5.5H2.75V6.5a.5.5,0,0,0,.5.5h.5a.5.5,0,0,0,.5-.5V4.25H6.5a.5.5,0,0,0,.5-.5v-.5A.5.5,0,0,0,6.5,2.75Z" transform="translate(12.45 7.5) rotate(135)" fill="#fff"/>
</svg>
