<svg xmlns="http://www.w3.org/2000/svg" width="13" height="14.857" viewBox="0 0 13 14.857"><defs><style>.a{fill:#6b6b6b;}</style></defs><path class="a" d="M.929,13.464a1.393,1.393,0,0,0,1.393,1.393h8.357a1.393,1.393,0,0,0,1.393-1.393V3.714H.929ZM8.821,6.036a.464.464,0,0,1,.929,0v6.5a.464.464,0,0,1-.929,0Zm-2.786,0a.464.464,0,0,1,.929,0v6.5a.464.464,0,0,1-.929,0Zm-2.786,0a.464.464,0,1,1,.929,0v6.5a.464.464,0,1,1-.929,0ZM12.536.928H9.054L8.781.386A.7.7,0,0,0,8.157,0H4.84a.688.688,0,0,0-.621.386L3.946.928H.464A.464.464,0,0,0,0,1.393v.929a.464.464,0,0,0,.464.464H12.536A.464.464,0,0,0,13,2.321V1.393A.464.464,0,0,0,12.536.928Z" transform="translate(0 0)"/></svg>