<svg xmlns="http://www.w3.org/2000/svg" width="25" height="25" viewBox="0 0 25 25"><defs><style>.a{fill:#2daae1;}.b{fill:#fff;}</style></defs><g transform="translate(-227 -891)"><rect class="a" width="25" height="25" rx="3" transform="translate(227 891)"/><path class="b" d="M248.145,144.864a6.566,6.566,0,0,1-1.889.518,3.3,3.3,0,0,0,1.446-1.819,6.569,6.569,0,0,1-2.089.8,3.29,3.29,0,0,0-5.688,2.25,3.326,3.326,0,0,0,.085.75,9.337,9.337,0,0,1-6.778-3.436,3.292,3.292,0,0,0,1.018,4.39,3.273,3.273,0,0,1-1.49-.411v.042a3.29,3.29,0,0,0,2.638,3.224,3.272,3.272,0,0,1-.866.115,3.338,3.338,0,0,1-.619-.058,3.292,3.292,0,0,0,3.071,2.284,6.621,6.621,0,0,1-4.869,1.361,9.351,9.351,0,0,0,14.4-7.878q0-.214-.01-.425A6.7,6.7,0,0,0,248.145,144.864Z" transform="translate(-0.74 753.927)"/></g></svg>