<svg xmlns="http://www.w3.org/2000/svg" width="14" height="14" viewBox="0 0 14 14"><defs><style>.a{fill:#fff;}</style></defs><path class="a" d="M8.094,10.574H5.906a.655.655,0,0,1-.656-.656V5.324h-2.4a.546.546,0,0,1-.386-.933L6.625.229a.53.53,0,0,1,.746,0l4.162,4.162a.546.546,0,0,1-.386.933H8.75V9.918A.655.655,0,0,1,8.094,10.574ZM14,10.356v3.063a.655.655,0,0,1-.656.656H.656A.655.655,0,0,1,0,13.419V10.356A.655.655,0,0,1,.656,9.7H4.375v.219A1.532,1.532,0,0,0,5.906,11.45H8.094A1.532,1.532,0,0,0,9.625,9.918V9.7h3.719A.655.655,0,0,1,14,10.356Zm-3.391,2.407a.547.547,0,1,0-.547.547A.549.549,0,0,0,10.609,12.762Zm1.75,0a.547.547,0,1,0-.547.547A.549.549,0,0,0,12.359,12.762Z" transform="translate(0 -0.075)"/></svg>