<svg xmlns="http://www.w3.org/2000/svg" width="20" height="16.001" viewBox="0 0 20 16.001"><defs><style>.a{fill:#6b6b6b;}</style></defs><path class="a" d="M7,8A4,4,0,1,0,3,4,4,4,0,0,0,7,8ZM9.8,9H9.278A5.44,5.44,0,0,1,4.722,9H4.2A4.2,4.2,0,0,0,0,13.2v1.3A1.5,1.5,0,0,0,1.5,16h8.591a1.5,1.5,0,0,1-.081-.666l.213-1.9.038-.347.247-.247,2.416-2.416A4.158,4.158,0,0,0,9.8,9Zm1.416,4.541L11,15.447a.5.5,0,0,0,.55.55l1.9-.213,4.31-4.31L15.526,9.235ZM19.782,8.4,18.6,7.219a.749.749,0,0,0-1.056,0L16.36,8.4l-.128.128,2.244,2.241,1.306-1.306A.753.753,0,0,0,19.782,8.4Z"/></svg>